HIERARCHY
ROOT pelvis
{
  OFFSET 0 100 0
  CHANNELS 6 Xposition Yposition Zposition Zrotation Xrotation Yrotation
  JOINT pelvis_right_femur
  {
    OFFSET -10.78128 -3.44521 -0.5502486
    CHANNELS 3 Zrotation Xrotation Yrotation
    JOINT right_femur_tibia
    {
      OFFSET -0.8047443 -44.0398 -0.1307829
      CHANNELS 3 Zrotation Xrotation Yrotation
      JOINT right_tibia_foot
      {
        OFFSET 3.006224 -47.83518 -5
        CHANNELS 3 Zrotation Xrotation Yrotation
        End Site
        {
          OFFSET 0 -5 15
        }
      }
    }
  }
  JOINT pelvis_left_femur
  {
    OFFSET 10.78128 -3.44521 -0.5502486
    CHANNELS 3 Zrotation Xrotation Yrotation
    JOINT left_femur_tibia
    {
      OFFSET 0.8047443 -44.0398 -0.1307829
      CHANNELS 3 Zrotation Xrotation Yrotation
      JOINT left_tibia_foot
      {
        OFFSET -4.370144 -48.10324 -4.275266
        CHANNELS 3 Zrotation Xrotation Yrotation
        End Site
        {
          OFFSET 0 -5 15
        }
      }
    }
  }
  JOINT pelvis_spine1
  {
    OFFSET 0 6.468898 -3.129235
    CHANNELS 3 Zrotation Xrotation Yrotation
    JOINT spine1
    {
      OFFSET 0 23.15396 4.99043
      CHANNELS 3 Zrotation Xrotation Yrotation
      JOINT spine2
      {
        OFFSET 0 20.79997 -5.064912
        CHANNELS 3 Zrotation Xrotation Yrotation
        JOINT neck
        {
          OFFSET 0 14.38658 9.616178
          CHANNELS 3 Zrotation Xrotation Yrotation
          End Site
          {
            OFFSET 0 20 0
          }
        }
      }
      JOINT right_manubrium
      {
        OFFSET -5.722621 16.35077 3.967754
        CHANNELS 3 Zrotation Xrotation Yrotation
        JOINT right_clavicle
        {
          OFFSET -13.16364 1.694482 -4.693211
          CHANNELS 3 Zrotation Xrotation Yrotation
          JOINT right_humerus
          {
            OFFSET -28.5034 -0.3100689 -2.792744
            CHANNELS 3 Zrotation Xrotation Yrotation
            JOINT right_radius
            {
              OFFSET -25.15693 0.02248979 -1.271978
              CHANNELS 3 Zrotation Xrotation Yrotation
              End Site
              {
                OFFSET -15 0 0
              }
            }
          }
        }
      }
      JOINT left_manubrium
      {
        OFFSET 5.722621 16.35077 3.967754
        CHANNELS 3 Zrotation Xrotation Yrotation
        JOINT left_clavicle
        {
          OFFSET 13.16364 1.694482 -4.693211
          CHANNELS 3 Zrotation Xrotation Yrotation
          JOINT left_humerus
          {
            OFFSET 29.39168 -1.063119 -2.237045
            CHANNELS 3 Zrotation Xrotation Yrotation
            JOINT left_radius
            {
              OFFSET 24.59957 -0.9528479 0.9047498
              CHANNELS 3 Zrotation Xrotation Yrotation
              End Site
              {
                OFFSET 15 -0 -0
              }
            }
          }
        }
      }
    }
  }
}
MOTION
Frames: 13
Frame Time: 0.0416666666667
0 103.5113 0 2.522498 -0.6880014 0.005981769 2.874565 -12.71906 9.920838 -0 39.10823 -0 -6.230445 -17.11936 -3.410416 -8.308158 8.917331 -21.89736 -0 6.152996 -0 19.77014 -10.52246 30.81918 -5.868407 -4.421546 4.610119 3.901685 10.39631 -8.196015 0.708405 22.76297 6.216342 1.91227 -24.98467 9.063167 6.647685 -20.58879 12.2197 85.84141 40.19636 -18.22256 -0 0 13.959 -7.072813 7.529418 5.997442 3.017216 -17.8751 -2.489979 -90.69313 20.85849 19.71416 0 0 -14.44051 13.72233 12.71963 -2.44336
0.2462507 103.5961 1.575838 1.935817 -0.2339761 -0.05191566 3.427245 -14.79419 9.864426 -0 38.58176 -0 -6.608614 -15.86764 -3.231464 -7.88033 8.873732 -21.53759 -0 6.204773 -0 18.74173 -11.32795 30.09239 -5.404405 -4.122552 4.532622 3.839262 10.49648 -8.291904 0.7613272 22.29735 6.434997 2.192362 -25.28208 9.186911 6.832481 -20.48374 12.28526 85.72568 40.13977 -18.2213 -0 0 14.2482 -7.559815 8.183712 6.055918 3.549611 -18.39461 -2.242696 -90.82142 20.38375 19.71214 0 0 -14.32273 14.15369 12.88415 -2.8152
0.5138758 103.4858 3.203839 1.377836 -0.1101315 -0.1312435 3.687135 -16.63274 9.284304 -0 35.75051 -0 -5.912757 -15.85163 -3.458622 -7.419487 10.2191 -21.78848 -0 5.776195 -0 15.46929 -13.78172 28.28675 -5.035959 -3.750094 4.135482 4.068926 10.0396 -8.407258 0.8531532 22.14553 6.509688 2.124204 -25.7894 9.333201 6.500214 -20.29562 12.22904 85.75865 38.10568 -18.73056 -0 0 14.47412 -7.828778 8.474798 6.566419 3.688631 -18.31637 -2.164365 -91.83384 23.38376 20.44838 0 0 -15.05494 10.23583 13.97076 1.534018
0.7865588 103.2904 4.87846 1.029229 -0.04574475 -0.2057726 3.855553 -17.88242 8.955187 -0 34.64802 -0 -5.797869 -15.53276 -3.503941 -7.113605 10.84984 -21.91511 -0 5.55551 -0 13.23081 -15.26156 27.22033 -4.706193 -3.493423 3.975653 3.990573 9.765107 -8.381724 0.9285711 22.03007 6.62075 2.293738 -25.84829 9.369764 6.389016 -20.0839 12.12859 85.74562 37.14936 -18.96914 -0 0 14.70864 -7.911307 8.505619 6.505534 4.049584 -18.49814 -2.072176 -92.4177 24.82884 20.80989 0 0 -15.40583 8.491754 14.63642 3.524172
1.052091 102.9914 6.713894 0.4849327 0.2757175 -0.275037 4.227097 -20.09126 8.38247 -0 32.21033 -0 -5.635664 -14.6845 -3.557143 -6.613194 11.82846 -21.8281 -0 5.753144 -0 10.27614 -17.17267 25.34195 -4.270448 -3.083477 3.654496 4.043059 9.384556 -8.452681 1.027829 21.82911 6.775651 2.430787 -26.1881 9.48892 6.208913 -19.74696 12.03818 85.88633 36.01336 -19.48774 -0 0 14.67703 -8.30013 8.959669 6.736134 4.325253 -18.69624 -2.008663 -93.06666 26.8883 21.20525 0 0 -16.24651 5.845147 15.29744 6.631556
1.302875 102.6123 8.745064 -0.03864118 0.649102 -0.3137895 4.65887 -22.42914 7.852107 -0 30.19137 -0 -5.803667 -13.52199 -3.466554 -6.123355 12.47187 -21.54304 -0 6.112452 -0 7.612832 -18.76153 23.62969 -3.77467 -2.679517 3.441045 3.934052 9.093754 -8.47688 1.123904 21.57428 6.965562 2.733329 -26.31423 9.535048 6.128752 -19.36802 11.91931 85.99619 35.329 -19.89665 -0 0 14.66376 -8.65503 9.336449 6.668386 4.835988 -19.14326 -1.905583 -93.41257 28.0744 21.27811 0 0 -17.01597 4.39618 15.85532 8.421648
1.530044 102.1481 11.09967 -0.6305094 1.248835 -0.3035014 5.253996 -25.44613 7.167793 -0 27.27524 -0 -6.137177 -11.77284 -3.231 -5.567081 13.06865 -20.84853 -0 6.939662 -0 5.068475 -20.26144 21.60947 -3.231744 -2.200354 3.213895 3.868597 8.845316 -8.559945 1.215611 21.19643 7.164193 3.084397 -26.53278 9.551885 6.044926 -18.91543 11.8106 86.1688 34.82113 -20.36392 -0 0 14.43114 -9.187855 9.861124 6.650241 5.427088 -19.75049 -1.791194 -93.3738 28.60966 20.93726 0 0 -17.9693 3.634305 16.22454 9.426185
1.733268 101.5797 13.8679 -1.157761 1.92519 -0.2280228 5.863542 -28.66004 6.344232 -0 23.91076 -0 -6.64683 -9.651589 -2.789721 -5.073582 13.44522 -19.76382 -0 8.022057 -0 3.0226 -21.50329 19.6703 -2.710238 -1.731158 3.07915 3.766393 8.710212 -8.653909 1.276071 20.72706 7.343417 3.521859 -26.64877 9.445429 5.970344 -18.45298 11.70028 86.33403 34.51475 -20.76413 -0 0 14.09285 -9.772818 10.25505 6.510814 6.205187 -20.56878 -1.661012 -92.83196 28.00517 20.0573 0 0 -18.94276 4.167525 16.3982 8.853324
1.921239 100.8607 17.19654 -1.551197 2.673973 -0.06767304 6.371164 -32.06273 5.175636 -0 19.49343 -0 -7.235674 -6.9754 -2.075868 -4.712763 13.68774 -18.11749 -0 9.399714 -0 1.62018 -22.55361 17.75283 -2.287549 -1.274759 3.047234 3.693765 8.715928 -8.785167 1.274914 20.12875 7.474341 4.020872 -26.71104 9.155131 5.84121 -17.99149 11.60071 86.51036 34.23482 -21.12619 -0 0 13.54339 -10.4962 10.41103 6.342771 7.171174 -21.59394 -1.54234 -91.70912 25.88595 18.5236 0 0 -19.96303 6.167715 16.13045 6.364915
2.11812 99.90962 21.24102 -1.632982 3.330119 0.195653 6.463622 -35.17869 3.394577 -0 13.96764 -0 -7.798016 -3.704719 -1.026146 -4.648038 13.81549 -15.84183 -0 10.80958 -0 1.035423 -23.44304 16.00934 -2.075042 -0.8998289 3.196698 3.608907 8.917103 -8.927837 1.158208 19.42392 7.542205 4.607574 -26.57122 8.560185 5.606992 -17.57636 11.50244 86.70239 33.81288 -21.45097 -0 0 12.76829 -11.39669 10.06114 6.097881 8.392299 -22.8621 -1.496181 -90.1092 21.8439 16.37516 0 0 -21.05217 9.773697 15.07639 1.621843
2.37167 98.60717 26.19963 -1.133403 3.679928 0.5986858 5.671026 -37.30515 0.548162 -0 7.111881 -0 -8.142664 0.416836 0.4117375 -5.124164 13.96223 -12.80482 -0 11.81978 -0 1.355514 -24.24473 14.51315 -2.226009 -0.6962348 3.612832 3.457921 9.36846 -9.05532 0.8353975 18.64056 7.549163 5.32334 -26.05281 7.493639 5.169964 -17.25233 11.38473 86.98558 32.98892 -21.82927 -0 0 11.67069 -12.60252 8.854753 5.747829 9.91052 -24.40233 -1.656212 -88.28127 15.44432 13.74639 0 0 -22.34165 14.77321 12.58931 -5.427413
2.761399 96.84881 32.24468 0.2697153 3.394035 1.232821 3.666405 -36.99725 -3.446533 0 -0.2548707 0 -7.947503 5.435451 2.079507 -6.439126 14.392 -9.182587 -0 11.4399 -0 2.309914 -24.89352 13.42287 -2.825251 -0.8511997 4.357649 3.077231 10.06324 -9.097738 0.1928546 17.90821 7.55791 6.209225 -24.89747 5.835269 4.430339 -17.11213 11.19185 87.53413 31.53898 -22.45686 -0 0 10.27061 -14.15535 6.431307 5.168642 11.60582 -26.10941 -2.25346 -86.72602 7.159604 11.13949 0 0 -24.04117 19.86799 8.297974 -13.56055
3.368021 94.86371 39.27891 2.093816 2.672875 2.245917 1.921865 -33.00056 -6.181911 0 -3.9901 0 -6.807898 9.997089 3.075855 -8.223503 15.51045 -6.391193 -0 8.885616 -0 2.202775 -24.55465 12.61039 -3.22684 -1.56806 5.167085 2.330938 10.64321 -9.031248 -0.7068727 17.35625 7.763144 7.039375 -23.49681 4.12636 3.615984 -17.31369 10.8715 88.45771 30.00875 -23.53679 -0 0 9.35795 -15.31669 3.416004 4.25664 12.65989 -27.14747 -3.282759 -86.0067 1.082836 10.24128 0 0 -25.82396 21.70519 4.108896 -18.09212
